<svg xmlns="http://www.w3.org/2000/svg" version="1.1" viewBox="0 0 1434 537" height="537pt" width="1434pt">
<g id="#ffffffff">
</g>
<g id="#182c82ff">
<path d="M 182.69 12.87 C 198.98 6.89 216.06 3.59 233.04 0.35 C 233.67 0.48 234.93 0.74 235.55 0.87 C 219.80 29.48 203.28 57.67 187.31 86.17 C 186.27 88.61 183.40 89.06 181.32 90.26 C 154.52 103.49 131.27 123.36 112.83 146.78 C 96.95 167.99 84.63 192.10 78.28 217.90 C 72.23 240.32 70.82 263.84 72.89 286.92 C 64.09 303.56 54.28 319.71 45.16 336.20 C 37.77 348.83 30.98 361.85 23.23 374.24 C 12.52 348.63 4.95 321.59 2.22 293.92 C 1.44 282.97 -0.05 272.03 0.63 261.03 C 1.51 249.67 2.15 238.27 3.92 226.99 C 9.32 193.82 20.26 161.43 37.35 132.42 C 69.45 76.95 121.94 33.45 182.69 12.87 Z" opacity="1.00" fill="#182c82"></path>
<path d="M 204.87 120.83 C 227.36 80.88 250.33 41.19 272.65 1.14 C 283.92 22.43 295.75 43.43 307.19 64.64 C 307.95 65.60 308.05 66.59 307.47 67.61 C 256.24 158.27 204.44 248.60 153.16 339.22 C 151.41 342.30 149.44 345.26 148.04 348.53 C 154.80 348.53 161.56 348.68 168.32 348.44 C 195.59 300.07 223.05 251.80 250.63 203.62 C 272.74 164.71 294.73 125.74 316.98 86.91 C 362.38 165.18 408.08 243.26 453.55 321.49 C 454.59 323.28 455.67 325.06 456.76 326.84 C 389.50 326.87 322.23 326.86 254.97 326.84 C 253.54 326.59 252.29 327.46 251.80 328.76 C 248.22 335.42 244.15 341.83 240.84 348.63 C 316.24 348.46 391.63 348.63 467.03 348.55 C 478.99 369.61 491.43 390.43 503.10 411.65 C 348.69 411.54 194.27 411.57 39.86 411.63 C 41.05 408.38 43.06 405.53 44.73 402.53 C 97.96 308.54 151.49 214.73 204.87 120.83 M 317.33 213.73 C 307.82 230.34 298.10 246.85 289.02 263.70 C 304.35 263.96 319.69 263.74 335.03 263.81 C 338.98 263.69 342.98 264.13 346.91 263.49 C 338.26 248.72 329.81 233.83 321.00 219.15 C 319.96 217.23 318.88 215.30 317.33 213.73 Z" opacity="1.00" fill="#182c82"></path>
<path d="M 309.56 1.05 C 347.76 6.81 384.82 20.71 417.06 42.06 C 431.17 50.82 443.83 61.68 456.04 72.87 C 490.43 105.86 516.17 147.95 529.00 193.90 C 537.02 220.81 539.78 249.03 539.02 277.03 C 538.20 290.45 537.41 303.91 534.63 317.11 C 530.94 335.91 525.31 354.32 517.91 371.99 C 502.05 343.91 486.06 315.91 470.21 287.83 C 469.06 285.72 467.33 283.61 467.77 281.06 C 469.09 259.73 467.52 238.13 461.89 217.47 C 456.11 194.08 445.25 172.17 431.60 152.40 C 419.31 135.87 404.99 120.68 388.44 108.35 C 379.46 101.88 369.95 96.18 360.21 90.93 C 358.79 90.34 358.07 88.96 357.35 87.71 C 344.31 64.09 331.06 40.58 318.14 16.88 C 315.24 11.63 312.05 6.51 309.56 1.05 Z" opacity="1.00" fill="#182c82"></path>
<path d="M 611.37 181.36 C 636.91 181.39 662.47 181.15 688.01 181.51 C 703.67 182.47 720.27 185.93 732.31 196.68 C 742.41 205.75 746.33 219.82 745.79 233.04 C 746.05 247.35 739.53 261.53 728.67 270.80 C 721.64 277.04 713.03 281.25 704.07 283.89 C 706.33 285.76 709.36 286.34 711.61 288.26 C 722.96 296.85 730.52 309.15 738.03 320.98 C 748.04 336.51 758.05 352.05 767.96 367.64 C 751.78 367.80 735.60 367.80 719.42 367.64 C 709.05 350.09 698.38 332.70 687.82 315.25 C 682.99 307.97 677.80 299.52 668.91 296.90 C 663.81 295.94 658.56 296.68 653.41 296.49 C 653.39 320.22 653.36 343.96 653.42 367.69 C 639.41 367.79 625.39 367.73 611.38 367.72 C 611.38 305.60 611.40 243.48 611.37 181.36 M 653.44 212.63 C 653.33 229.94 653.41 247.26 653.40 264.57 C 659.96 264.58 666.52 264.60 673.08 264.57 C 682.00 264.67 691.01 260.61 696.42 253.42 C 701.60 246.88 702.54 237.93 700.93 229.96 C 699.73 223.58 695.14 218.07 689.14 215.62 C 677.84 210.83 665.33 213.27 653.44 212.63 Z" opacity="1.00" fill="#182c82"></path>
<path d="M 785.26 181.29 C 799.36 181.43 813.47 181.09 827.57 181.46 C 827.48 243.48 827.40 305.50 827.61 367.52 C 813.50 368.04 799.36 367.56 785.25 367.76 C 785.22 305.60 785.19 243.45 785.26 181.29 Z" opacity="1.00" fill="#182c82"></path>
<path d="M 870.34 181.30 C 886.22 181.35 902.10 181.33 917.98 181.33 C 935.45 181.46 953.40 180.16 970.21 185.91 C 982.41 189.78 993.71 197.71 999.77 209.19 C 1005.24 219.15 1006.91 230.76 1006.66 242.00 C 1006.76 255.98 1001.83 270.05 992.38 280.45 C 981.55 292.61 965.96 299.79 950.01 302.15 C 937.59 304.18 924.97 303.38 912.44 303.54 C 912.29 324.96 912.56 346.38 912.31 367.79 C 898.31 367.64 884.31 367.81 870.31 367.70 C 870.39 305.57 870.33 243.44 870.34 181.30 M 912.50 271.64 C 925.33 271.16 939.28 273.52 950.90 266.64 C 959.64 261.50 963.02 250.71 962.51 241.06 C 962.66 231.61 958.05 221.64 949.21 217.48 C 937.82 211.79 924.76 213.92 912.51 213.44 C 912.33 232.84 912.36 252.24 912.50 271.64 Z" opacity="1.00" fill="#182c82"></path>
<path d="M 1034.33 181.33 C 1053.53 181.31 1072.74 181.35 1091.95 181.33 C 1101.79 181.41 1111.73 180.97 1121.46 182.82 C 1134.34 184.94 1147.37 189.76 1156.56 199.37 C 1166.78 209.74 1170.67 224.77 1170.66 238.99 C 1171.09 251.06 1168.34 263.47 1161.57 273.60 C 1153.40 286.33 1140.09 295.18 1125.75 299.51 C 1109.85 304.55 1092.98 303.45 1076.55 303.52 C 1076.15 324.94 1076.64 346.38 1076.30 367.80 C 1062.31 367.64 1048.31 367.81 1034.32 367.71 C 1034.37 305.58 1034.35 243.46 1034.33 181.33 M 1076.44 213.49 C 1076.38 232.86 1076.39 252.22 1076.44 271.59 C 1087.64 271.26 1099.29 272.93 1110.05 268.96 C 1116.54 266.73 1121.98 261.61 1124.38 255.15 C 1127.08 247.47 1127.28 238.93 1124.93 231.14 C 1122.69 223.82 1116.50 218.09 1109.27 215.79 C 1098.66 212.38 1087.39 213.77 1076.44 213.49 Z" opacity="1.00" fill="#182c82"></path>
<path d="M 1230.26 181.43 C 1246.92 181.23 1263.61 181.27 1280.29 181.41 C 1295.33 224.04 1310.62 266.58 1325.71 309.19 C 1332.76 328.60 1339.40 348.15 1346.62 367.50 C 1331.26 368.00 1315.87 367.70 1300.51 367.65 C 1296.21 353.86 1291.68 340.15 1287.40 326.36 C 1265.30 326.24 1243.20 326.34 1221.10 326.31 C 1216.66 340.09 1212.29 353.89 1207.93 367.69 C 1192.69 367.66 1177.45 367.98 1162.23 367.54 C 1185.07 305.57 1207.34 243.35 1230.26 181.43 M 1253.58 215.48 C 1252.71 219.70 1252.48 224.06 1251.10 228.17 C 1244.17 250.02 1237.23 271.87 1230.18 293.68 C 1242.09 294.33 1254.08 293.33 1266.01 294.17 C 1269.87 294.10 1273.86 294.67 1277.64 293.53 C 1271.72 275.64 1266.21 257.63 1260.41 239.70 C 1257.52 231.61 1255.44 223.27 1254.44 214.74 C 1254.22 214.92 1253.79 215.29 1253.58 215.48 Z" opacity="1.00" fill="#182c82"></path>
<path d="M 67.78 444.17 C 71.83 443.69 75.91 443.93 79.98 443.90 C 112.65 443.89 145.33 443.92 178.01 443.88 C 179.74 443.84 181.48 444.17 183.02 445.00 C 235.33 471.04 299.37 471.83 352.39 447.33 C 355.78 445.81 359.09 443.52 362.99 443.87 C 399.43 444.00 435.88 443.75 472.32 444.00 C 470.30 447.35 467.34 449.95 464.72 452.81 C 452.82 465.38 439.44 476.44 425.60 486.80 C 391.22 510.80 351.44 527.29 309.87 533.26 C 300.31 534.86 290.64 535.31 281.01 536.23 C 271.32 537.42 261.58 536.18 251.90 535.56 C 213.37 533.08 175.39 522.05 141.59 503.35 C 120.13 492.19 100.92 477.18 83.32 460.69 C 77.96 455.35 72.46 450.12 67.78 444.17 Z" opacity="1.00" fill="#182c82"></path>
</g>
</svg>
